<?xml version="1.0" encoding="UTF-8"?>
<svg id="Camada_2" data-name="Camada 2" xmlns="http://www.w3.org/2000/svg" viewBox="0 0 128.13 98.81">
  <defs>
    <style>
      .cls-1 {
        fill: #263972;
        stroke-width: 0px;
      }
    </style>
  </defs>
  <g id="Camada_1-2" data-name="Camada 1">
    <g>
      <path class="cls-1" d="M128.13,26.09c-2.54,1.33-5.07,2.66-7.5,3.94-1.16-1.06-2.15-2.3-3.42-3.08-3.13-1.93-6.39-1.94-9.52.1-2.79,1.82-5.53,3.71-8.1,5.44,3.67,5.57,7.27,11.06,11.05,16.8-3.8,1.45-7.15,2.94-10.63,4.02-4.36,1.35-8.79,2.54-13.26,3.46-3.13.64-6.38.69-9.57-.72-.04.46-.09.77-.09,1.09,0,7.72-.02,15.44,0,23.16.01,4.7,2.5,8.14,6.67,9.3.72.2,1.46.28,2.25.42v8.71c-4.46.03-8.3-1.45-11.57-4.31-4.08-3.57-6.13-8.12-6.15-13.55-.01-4.26,0-8.51,0-12.77,0-.41,0-.81,0-1.4-2.9,1.44-5.83,1.85-9.04,1.38,0,.56,0,1.01,0,1.45,0,3.63,0,7.26,0,10.89-.02,9.45-6.11,16.65-15.43,18.21-.73.12-1.48.09-2.32.13v-8.76c2.13-.24,4.15-.79,5.79-2.29,1.77-1.61,2.94-3.55,2.97-5.97.07-4.58.02-9.17.02-14.06-4.29,5.16-9.74,7.93-15.94,9.3-.12,2.25-.14,4.47-.38,6.65-.79,7.17-7.13,13.71-14.28,14.83-1.02.16-2.05.23-3.19.36v-8.83c3.11-.26,5.72-1.52,7.47-4.24,1.59-2.47,1.45-5.22,1.35-7.86-2.77-.59-5.51-.97-8.11-1.77-5.52-1.68-10.27-4.64-13.47-9.58-4.42-6.8-3.52-14.92,2.13-20.75,3.71-3.83,8.23-6.17,13.36-7.39.47-.11,1.13.1,1.55.39,5.65,3.94,11.85,6.58,18.62,7.83,8.46,1.57,16.75.89,24.84-2.06,4.06-1.48,7.77-3.6,11.31-6.05,9.08-6.3,18.14-12.62,27.26-18.85,8-5.46,19.29-3.12,24.57,5,.22.33.5.62.75.93v.5Z"/>
      <path class="cls-1" d="M0,33.32v-8.92c.56,0,1.05,0,1.54,0,10.72-.02,21.45-.07,32.17-.04,6.87.02,13.21-1.89,19.44-5.05-1.21-2.57-2.41-5.14-3.74-7.97-7.01,4.13-14.59,4.75-22.47,4.1.1-.11.18-.24.29-.32,4.49-3.1,8.91-6.32,13.5-9.28C57.32-4.87,80.15-.42,91.61,15.66c.14.2.28.4.41.58-.07.12-.09.22-.15.26-7.95,5.51-15.79,11.17-23.88,16.46-7.97,5.21-16.84,6.67-26.21,5.2-4.49-.7-8.68-2.25-12.66-4.4-.55-.3-1.26-.43-1.89-.43-8.55-.03-17.11-.02-25.66-.02-.49,0-.98,0-1.56,0Z"/>
    </g>
  </g>
</svg>