<?xml version="1.0" encoding="UTF-8"?>
<svg id="Camada_2" data-name="Camada 2" xmlns="http://www.w3.org/2000/svg" viewBox="0 0 568.86 101.03">
  <defs>
    <style>
      .cls-1 {
        fill: #41af76;
      }

      .cls-1, .cls-2, .cls-3, .cls-4, .cls-5 {
        stroke-width: 0px;
      }

      .cls-2 {
        fill: #75b84d;
      }

      .cls-3 {
        fill: #6b7ff2;
      }

      .cls-4 {
        fill: #00925c;
      }

      .cls-5 {
        fill: #263972;
      }
    </style>
  </defs>
  <g id="Camada_1-2" data-name="Camada 1">
    <path class="cls-5" d="M568.86,22.8c-2.13,1.53-4.28,3.02-6.37,4.59-.66.49-.98.41-1.51-.18-2.82-3.16-7.53-3.93-11.14-1.74-3.24,1.97-6.17,4.39-9.25,6.58-.5.14-.8-.23-1.03-.53-1.64-2.12-3.67-3.81-5.76-5.45-.03-.18.02-.34.16-.45,1.78-1.35,3.55-2.73,5.53-3.8,1.56-1.1,3.09-2.25,4.68-3.31,7.99-5.34,18.07-3.86,24.17,3.54.15.18.36.32.54.48v.25Z"/>
    <path class="cls-3" d="M491.77,68.13c-4.2,5.14-9.68,8.13-16.1,9.52-.12.02-.22.12-.32.19-.96.69-2.13.69-3.21.76-1.87.12-3.77.46-5.62-.24-6.71-.51-12.82-2.51-18.1-6.88-8.71-7.22-8.68-19.75.07-26.91,3.86-3.16,8.26-5.05,13.04-6.2.64-.21,1,.28,1.41.58,6.61,4.94,14.08,7.73,22.25,8.45,5.46.48,10.9.02,16.16-1.74.65-.22,1.33-.59,2.02-.08.4.55.34,1.19.34,1.8,0,6.56,0,13.13,0,19.69,0,.62.04,1.26-.39,1.78-.9,0-1.8,0-2.7,0-2.19-.11-4.01-1.15-5.74-2.36-1.45-1.02-1.19-.81-2,.38-.32.46-.51,1.05-1.12,1.27Z"/>
    <path class="cls-2" d="M503.05,45.54c-3.18.93-6.37,1.8-9.69,2.11-3.46.32-6.9.32-10.34-.15-5.98-.82-11.6-2.75-16.75-5.92-1.62-1-3.16-2.15-4.73-3.22-2.29-2.14-4.7-4.17-6.52-6.76.5-.53,1.16-.38,1.77-.38,5.83-.01,11.67-.1,17.5.01,7.22.14,13.93-1.65,20.34-4.84,2.05-1.02,4.16-1.92,6.21-2.95.88-.44,1.18-.87.66-1.82-.86-1.57-1.61-3.2-2.43-4.8-.6-1.16-.76-1.23-1.93-.65-3.36,1.67-6.7,3.36-10.18,4.77-3.68,1.5-7.51,2.18-11.46,2.21-6.04.03-12.08.02-18.13,0-.64,0-1.35.19-1.87-.41,7.07-4.9,14.14-9.81,21.22-14.71,8-5.55,16.79-8.45,26.6-7.97.44.48.41,1.07.41,1.65,0,14.03,0,28.07,0,42.1,0,.42,0,.83-.14,1.24-.1.25-.27.42-.53.5Z"/>
    <path class="cls-1" d="M503.32,45.3c0-15.08,0-30.16,0-45.24,5.14-.05,10.02,1.19,14.73,3.1,8.25,3.35,14.7,8.93,19.68,16.26.56.82,1.16,1.61,1.75,2.42-1.64,1.57-3.64,2.65-5.45,3.99-.06.05-.11.12-.16.18-.63,1.05-1.75,1.5-2.69,2.14-6.72,4.61-13.29,9.43-20.12,13.88-.77.5-1.58.92-2.39,1.34-1.3.65-2.58,1.35-3.95,1.82-.45.15-.9.5-1.39.1Z"/>
    <path class="cls-3" d="M508.61,43.12c8.39-5.08,16.18-11.06,24.31-16.53.31-.21.63-.39.95-.59,2.1,1.11,3.7,2.8,5.23,4.56.46.53.9,1.09,1.49,1.5,2.32,3.14,4.79,6.18,6.84,9.52,1.48,2.41,2.9,4.86,4.38,7.26.4.65.36.95-.41,1.27-7.28,3.1-14.67,5.87-22.52,7.12-3.39.54-6.79.65-10.08-.66-1.51-.08-2.59-1.03-3.7-1.87-3.27-2.47-5.42-5.71-6.44-9.68-.16-.6-.53-1.26-.04-1.9Z"/>
    <path class="cls-5" d="M508.61,43.12c.88,5.8,3.97,10.06,9.08,12.88.36.2.73.38,1.1.57,0,8.29-.04,16.59,0,24.88.02,5.02,3.06,8.49,8.02,9.25.85.13,1.06.42,1.04,1.25-.06,2.21-.06,4.42,0,6.63.02.87-.2,1.11-1.1,1.08-8.15-.26-15.66-7.1-16.66-15.28-.52-4.27-.14-8.58-.23-12.86-.03-1.33,0-2.66,0-4.16-2.14.92-4.24,1.67-6.52,1.5,0-7.3,0-14.61-.02-21.91,0-.47.2-1.01-.26-1.4.09-.08.18-.16.27-.24,1.91-.37,3.53-1.44,5.29-2.17Z"/>
    <path class="cls-4" d="M455.49,22.74c7.2.02,14.41.14,21.61.01,4.27-.08,8.33-1.34,12.19-3.19,2.77-1.34,5.56-2.65,8.3-4.04.8-.41,1.12-.27,1.49.51.97,2.07,2.02,4.11,3.06,6.15.27.52.35.83-.31,1.14-6.15,2.93-12.14,6.25-18.92,7.57-2.16.42-4.35.65-6.54.66-7.12.04-14.24.03-21.37.05-4.33,0-8.66-.06-12.98,0-1.09.02-1.3-.32-1.26-1.32.08-2.2.06-4.41,0-6.62-.02-.79.25-.97.99-.96,4.58.04,9.15.02,13.73.03Z"/>
    <path class="cls-5" d="M491.77,68.13c.51-.85,1.03-1.7,1.54-2.56.17-.29.34-.5.66-.19,1.87,1.84,4.28,2.63,6.66,3.47-.01,4.75.08,9.51-.07,14.25-.28,8.61-8.15,16.3-16.74,16.56-.91.03-1.13-.24-1.11-1.1.05-2.25.05-4.5,0-6.75-.02-.75.23-.96.95-1.08,5.16-.86,8.11-4.35,8.13-9.58.01-4.33-.01-8.67-.02-13Z"/>
    <path class="cls-5" d="M466.52,78.36c2.96.07,5.9-.09,8.83-.52.05,3.58.13,7.13-1.24,10.57-2.51,6.31-8.95,11.01-15.51,11.24-.82.03-1.2-.09-1.17-1.03.06-2.29.04-4.58,0-6.87-.01-.68.2-.94.89-1.01,4.62-.45,8.37-4.26,8.21-9.89-.02-.83,0-1.66-.01-2.5Z"/>
    <g>
      <path class="cls-5" d="M89.69,98.27c0,1-.75,1.5-2.38,1.38-4.51-.25-8.77-.38-12.78-.38s-8.52.13-13.03.38c-1.5.13-2.25-.38-2.25-1.38,0-.63.63-1.25,1.88-1.88,2.38-1,2.38-3.13.75-8.02l-5.76-17.79H22.05l-3.76,11.77c-2.88,8.89-1.63,12.9,5.01,13.9,1.38.38,2.13,1.13,2.13,2,0,1-.75,1.5-2.25,1.38-3.01-.13-7.27-.25-12.65-.25-2.38,0-5.14.12-8.14.25-1.63.13-2.38-.38-2.38-1.38,0-.75.75-1.38,2.25-2,2.88-.88,5.01-4.76,8.14-13.9L36.45,8.46c0-.5.25-.88.75-1.13,1.88-.38,2.25-.12,4.89.75,1.38.38,2.51.63,3.63.75,3.51.5,5.76.75,6.89.75,1.13.13,1.88.75,2.13,1.63l27.56,77.16c1.63,5.14,2.63,7.02,5.14,7.89,1.5.63,2.25,1.25,2.25,2ZM23.67,65.45h30.81l-15.53-47.6-15.28,47.6Z"/>
      <path class="cls-5" d="M173.24,98.27c0,1-.75,1.5-2.38,1.38-8.52-.5-15.53-.5-24.05,0-1.63.13-2.38-.38-2.38-1.38,0-.63.75-1.38,2.25-2,2.13-.88,2.63-2.88,2.63-7.89v-31.94c0-13.78-4.63-20.67-13.9-20.67-5.14,0-9.02,2-11.65,6.01-2.63,3.88-3.88,8.64-3.88,14.03v32.57c0,4.63.88,7.27,2.76,7.89,1.38.63,2.13,1.38,2.13,2,0,1-.75,1.5-2.38,1.38-4.01-.25-8.02-.38-11.9-.38s-7.77.13-12.03.38c-1.63.13-2.38-.38-2.38-1.38,0-.63.75-1.25,2.13-2,1.88-.63,2.76-3.26,2.76-7.89v-41.71c0-4.51-.88-7.14-2.76-7.89-1.5-.63-2.25-1.25-2.25-2.13s.63-1.5,1.75-1.75c6.39-1.38,12.65-3.51,18.66-6.64,1.38-.75,2.25-.38,2.38,1.25l.88,10.15.13,1.25c4.38-9.52,12.03-14.28,22.8-14.28,17.91,0,25.8,9.65,25.8,29.81v31.94c0,5.01.5,7.02,2.63,7.89,1.5.63,2.25,1.38,2.25,2Z"/>
      <path class="cls-5" d="M216.2,94.64c-3.13,4.26-7.89,6.39-14.28,6.39-10.9,0-16.28-5.51-16.28-16.53v-51.11h-4.38c-1.38,0-2-.88-2-2.63,0-2,.38-2.51,2-2.51h1.63c3.63,0,7.14-1.38,10.4-4.01,3.38-2.76,5.64-6.01,6.89-9.9.38-1.13,1.13-1.63,2.25-1.63,1.38,0,2.13.63,2.13,2v13.53h10.02c1.25,0,1.88.88,1.88,2.51,0,1.75-.63,2.63-1.88,2.63h-10.02v51.98c0,4.89,1.25,7.52,3.88,8.02.75.13,2.51-.25,5.14-1.13,1.38-.75,2.25-.88,2.76-.38.63.63.63,1.5-.12,2.76Z"/>
      <path class="cls-5" d="M301.38,98.27c0,1-.75,1.5-2.38,1.38-4.26-.25-8.27-.38-12.03-.38s-7.89.13-11.9.38c-1.63.13-2.51-.25-2.51-1.38,0-.63.75-1.38,2.25-2,2.13-.88,2.63-2.88,2.63-7.89v-31.94c0-13.78-4.63-20.67-13.9-20.67-5.14,0-9.02,2-11.65,6.01-2.63,3.88-3.88,8.64-3.88,14.03v32.57c0,4.63.88,7.27,2.76,7.89,1.38.63,2.13,1.38,2.13,2,0,1.13-.75,1.5-2.25,1.38-8.52-.5-15.53-.5-24.05,0-1.63.13-2.38-.38-2.38-1.38,0-.63.75-1.25,2.13-2,2.38-.88,2.76-2.88,2.76-7.89V25.99c0-4.89-.5-6.89-2.63-7.77-1.5-.75-2.25-1.5-2.25-2.13,0-1,.75-1.75,2.13-2.13,7.14-1.25,13.53-3.38,19.42-6.51,1.38-.63,2.25-.13,2.25,1.38v31.82c4.63-9.39,12.15-14.03,22.67-14.03,17.91,0,25.8,9.65,25.8,29.81v31.94c0,5.01.5,7.02,2.63,7.89,1.5.63,2.25,1.38,2.25,2Z"/>
      <path class="cls-5" d="M339.08,98.27c0,1-.75,1.5-2.38,1.38-4.51-.25-8.52-.38-12.03-.38-3.76,0-7.77.13-12.03.38-1.63.13-2.38-.38-2.38-1.38,0-.63.75-1.38,2.25-2,2.13-.88,2.63-2.88,2.63-7.89v-41.59c0-4.89-.5-6.89-2.63-7.89-1.5-.63-2.25-1.25-2.25-2.13s.75-1.63,2.25-2.13c7.02-1.38,13.4-3.51,19.29-6.39,1.63-.75,2.38-.38,2.38,1.25v58.87c0,5.01.5,7.02,2.63,7.89,1.5.63,2.25,1.38,2.25,2ZM315.03,19.73c-4.89-4.01-4.89-10.52,0-14.53s12.65-4.01,17.54,0,4.89,10.52,0,14.53c-4.89,3.88-12.65,3.88-17.54,0Z"/>
      <path class="cls-5" d="M377.66,98.27c0,1.13-.75,1.5-2.25,1.38-8.52-.5-15.53-.5-24.05,0-1.63.13-2.38-.38-2.38-1.38,0-.63.75-1.25,2.13-2,2.38-.88,2.76-2.88,2.76-7.89V25.99c0-4.89-.5-6.89-2.63-7.77-1.5-.75-2.25-1.5-2.25-2.13,0-1,.75-1.75,2.13-2.13,7.14-1.25,13.53-3.38,19.42-6.51,1.38-.63,2.25-.13,2.25,1.38v79.54c0,4.63.88,7.27,2.76,7.89,1.38.63,2.13,1.38,2.13,2Z"/>
      <path class="cls-5" d="M414.86,98.27c0,1.13-.75,1.5-2.25,1.38-8.52-.5-15.53-.5-24.05,0-1.63.13-2.38-.38-2.38-1.38,0-.63.75-1.25,2.13-2,2.38-.88,2.76-2.88,2.76-7.89V25.99c0-4.89-.5-6.89-2.63-7.77-1.5-.75-2.25-1.5-2.25-2.13,0-1,.75-1.75,2.13-2.13,7.14-1.25,13.53-3.38,19.42-6.51,1.38-.63,2.25-.13,2.25,1.38v79.54c0,4.63.88,7.27,2.76,7.89,1.38.63,2.13,1.38,2.13,2Z"/>
    </g>
  </g>
</svg>